<svg width="21" height="20" viewBox="0 0 21 20" fill="none" xmlns="http://www.w3.org/2000/svg">
<path d="M18.9339 6.00929C18.8447 5.83442 18.7209 5.67953 18.5699 5.55404C18.419 5.42855 18.2441 5.33509 18.0559 5.27933C17.8677 5.22354 17.6701 5.20663 17.4751 5.22963C17.2801 5.25263 17.0919 5.31506 16.9218 5.41313L16.5114 5.64987C16.4564 5.43872 16.3523 5.24356 16.2075 5.08028C16.0117 4.86072 15.7531 4.7066 15.4668 4.63876L15.5903 4.51544C16.1589 3.97097 16.2016 3.07646 15.6874 2.48013C15.556 2.33358 15.3961 2.21537 15.2175 2.13274C15.0388 2.0501 14.8452 2.00478 14.6484 1.99954C14.4517 1.9943 14.2559 2.02925 14.0731 2.10225C13.8903 2.17526 13.7243 2.28478 13.5853 2.42413L12.8961 3.11497C12.7415 2.46298 12.1596 2.00225 11.4894 2.0016H11.4874C11.2978 2.00121 11.1101 2.03841 10.935 2.11105C10.7599 2.18368 10.601 2.29032 10.4674 2.42478L8.10314 4.78871L8.09892 4.79289L7.83491 5.05672C7.78648 4.63023 7.58716 4.2351 7.27295 3.94266C6.84621 3.55783 6.19267 3.57618 5.78802 3.98406L3.29973 6.47554C1.02432 8.68465 0.889233 12.2929 2.99303 14.666C3.41853 15.1318 3.91628 15.526 4.46716 15.8335C4.58562 15.96 4.70958 16.0812 4.83868 16.1968C6.72491 17.8749 9.47483 18.154 11.6597 16.8892L17.3911 13.5809C18.0799 13.2013 18.3522 12.3499 18.0115 11.6412C17.8784 11.3774 17.6674 11.1608 17.4071 11.0208L18.14 10.598C18.8311 10.2207 19.1065 9.3686 18.7668 8.65825C18.6346 8.39581 18.4249 8.18035 18.1661 8.04107L18.3154 7.95492C19.0059 7.57379 19.2774 6.71917 18.9339 6.00929ZM3.50231 14.2018C1.64572 12.1007 1.77038 8.91097 3.78519 6.96112L6.27494 4.47167C6.34212 4.40003 6.43448 4.35725 6.53257 4.35236C6.63067 4.34747 6.72683 4.38084 6.8008 4.44544C6.91097 4.54843 6.99931 4.67252 7.06057 4.81032C7.12184 4.94813 7.15479 5.09684 7.15746 5.24763C7.16012 5.39841 7.13246 5.5482 7.0761 5.68808C7.01975 5.82797 6.93586 5.9551 6.82941 6.06193H6.82768L4.48783 8.40178C4.45583 8.4338 4.43045 8.47181 4.41314 8.51363C4.39584 8.55546 4.38693 8.60029 4.38695 8.64556C4.38697 8.69082 4.3959 8.73564 4.41324 8.77746C4.43058 8.81927 4.45598 8.85727 4.488 8.88926C4.62261 9.02387 4.84088 9.0237 4.97549 8.88909L7.31112 6.55312L10.9501 2.91411C11.0201 2.84374 11.1033 2.78794 11.1949 2.74995C11.2866 2.71196 11.3848 2.69253 11.484 2.69279C11.6343 2.69248 11.7812 2.7368 11.9062 2.82014C12.0312 2.90348 12.1286 3.02207 12.1861 3.16087C12.2436 3.29967 12.2585 3.45242 12.229 3.59973C12.1995 3.74703 12.1269 3.88226 12.0205 3.98824L8.12752 7.88354C8.09494 7.9154 8.06899 7.95342 8.0512 7.99538C8.0334 8.03734 8.02411 8.08242 8.02386 8.12799C8.0236 8.17357 8.03239 8.21875 8.04971 8.2609C8.06704 8.30306 8.09255 8.34136 8.12478 8.37359C8.15701 8.40582 8.19531 8.43134 8.23747 8.44866C8.27963 8.46598 8.3248 8.47477 8.37038 8.47452C8.41596 8.47426 8.46103 8.46497 8.50299 8.44718C8.54495 8.42938 8.58297 8.40344 8.61483 8.37085L12.5126 4.4734L14.0743 2.91174C14.1472 2.8385 14.2343 2.78094 14.3302 2.7426C14.4262 2.70425 14.529 2.68594 14.6322 2.68878C14.7355 2.69154 14.8371 2.71539 14.9308 2.75887C15.0245 2.80236 15.1083 2.86455 15.1771 2.94164C15.4404 3.26711 15.4089 3.74043 15.1047 4.02813L14.1108 5.02209V5.02411L9.68715 9.44351C9.64315 9.48601 9.61126 9.53946 9.59475 9.59836C9.57823 9.65727 9.57769 9.7195 9.59318 9.77869C9.60867 9.83787 9.63963 9.89186 9.68288 9.93512C9.72613 9.97838 9.78012 10.0094 9.83929 10.0249C9.95991 10.0563 10.088 10.0205 10.1744 9.93082L14.5947 5.51069C14.6656 5.43538 14.7521 5.37649 14.8482 5.33816C14.9443 5.29982 15.0476 5.28296 15.1508 5.28877C15.254 5.29113 15.3556 5.31471 15.4493 5.35805C15.543 5.40139 15.6267 5.46355 15.6953 5.54067C15.769 5.62639 15.822 5.72789 15.8503 5.83735C15.8786 5.9468 15.8814 6.06129 15.8584 6.17198C15.8521 6.20695 15.8434 6.24146 15.8325 6.27528C15.8195 6.3158 15.8039 6.35542 15.7857 6.39391C15.7738 6.41751 15.7606 6.44049 15.7463 6.46274C15.7368 6.4789 15.7278 6.49522 15.717 6.51069C15.689 6.5508 15.6577 6.5885 15.6234 6.62341L14.1548 8.09758L14.1526 8.09961L11.2477 11.0037C11.2037 11.0461 11.1718 11.0995 11.1552 11.1584C11.1387 11.2173 11.1381 11.2795 11.1536 11.3387C11.1691 11.3978 11.2001 11.4518 11.2434 11.495C11.2866 11.5383 11.3406 11.5692 11.3998 11.5847C11.4589 11.6002 11.5212 11.5997 11.5801 11.5832C11.639 11.5667 11.6924 11.5349 11.735 11.4909L14.6336 8.59178C14.6336 8.59178 14.6378 8.58959 14.6395 8.58791C14.8816 8.32523 15.2799 8.28035 15.5744 8.48259C15.5911 8.49284 15.6089 8.50042 15.6244 8.51218C15.6399 8.52381 15.6572 8.54246 15.674 8.55728C15.6971 8.57615 15.7189 8.59613 15.7398 8.61715C15.7413 8.61952 15.743 8.62172 15.7447 8.62375C15.8052 8.69786 15.8519 8.78227 15.8825 8.87294C15.9018 8.9369 15.9123 9.00302 15.9139 9.06966V9.108C15.9117 9.24363 15.8775 9.37683 15.814 9.49671C15.8064 9.51142 15.7983 9.52588 15.7898 9.54009C15.7576 9.59438 15.7193 9.64481 15.6757 9.69038C15.672 9.69438 15.6693 9.69929 15.6651 9.70347L10.9854 14.383C10.8843 14.4842 10.779 14.5811 10.6697 14.6733C9.20299 15.9144 7.16914 16.2405 5.38793 15.52C5.26168 15.4686 5.13745 15.4124 5.01555 15.3514C4.44447 15.065 3.93137 14.6752 3.50231 14.2018ZM17.0451 12.9841L11.3144 16.2921C10.6113 16.6995 9.82201 16.935 9.01069 16.9796C8.19937 17.0243 7.38898 16.8767 6.64547 16.5489C7.07443 16.6006 7.50789 16.603 7.93739 16.5562C7.97172 16.5528 8.00385 16.5456 8.03767 16.5417C8.20997 16.5207 8.37809 16.4937 8.54652 16.4579C8.60626 16.4456 8.66446 16.4286 8.72369 16.4141C8.8654 16.3798 9.00553 16.3411 9.14453 16.2957C9.21065 16.2743 9.27544 16.2503 9.34087 16.2267C9.47147 16.1789 9.60001 16.1268 9.72725 16.0695C9.79327 16.0402 9.85873 16.0095 9.92359 15.9777C10.0484 15.9159 10.1704 15.8485 10.2912 15.7774C10.354 15.7427 10.4156 15.706 10.476 15.6674C10.6003 15.5881 10.7203 15.5017 10.8393 15.4122C10.8913 15.3734 10.9446 15.3376 10.9957 15.2971C11.146 15.176 11.2902 15.0476 11.4279 14.9124C11.4433 14.8976 11.4602 14.8855 11.4753 14.8704L12.608 13.7374H12.6119C12.6724 13.7373 12.7318 13.7214 12.7842 13.6912L16.3404 11.6377L16.3443 11.6347C16.4338 11.5841 16.5327 11.5522 16.6349 11.5409C16.7371 11.5296 16.8406 11.5392 16.939 11.569C17.0374 11.5989 17.1287 11.6484 17.2075 11.7146C17.2862 11.7807 17.3507 11.8622 17.397 11.954C17.5669 12.3365 17.4133 12.785 17.0451 12.9841ZM17.7964 9.99983L15.9942 11.0405C15.9942 11.0405 15.991 11.0439 15.989 11.0449L14.3613 11.9858L16.1567 10.1903C16.218 10.1279 16.2737 10.0604 16.3233 9.98837C16.3394 9.96563 16.3536 9.94293 16.3684 9.91954C16.3978 9.87265 16.4247 9.82424 16.449 9.7745C16.4645 9.74306 16.4811 9.71239 16.4941 9.68025C16.5372 9.57127 16.5683 9.45781 16.5868 9.3419C16.5924 9.30744 16.5979 9.27543 16.6009 9.24196C16.6055 9.19617 16.6075 9.15073 16.6075 9.10412C16.6075 9.06966 16.6051 9.03533 16.6028 9.00083C16.6028 8.98114 16.6028 8.9618 16.6003 8.94259L17.0951 8.65657C17.1844 8.60505 17.2832 8.57223 17.3855 8.56011C17.4879 8.54798 17.5916 8.55681 17.6904 8.58605C17.7892 8.61521 17.8811 8.66417 17.9604 8.72996C18.0396 8.79574 18.1047 8.87696 18.1516 8.96869C18.3207 9.35232 18.1656 9.80147 17.7964 9.99983ZM17.9687 7.35673L16.7505 8.06075L16.3512 8.29125C16.321 8.24444 16.2881 8.19944 16.2526 8.15647C16.2074 8.10748 16.159 8.06145 16.1079 8.01867C16.1024 8.01414 16.0978 8.00841 16.0923 8.00385C16.0633 7.98016 16.0317 7.96112 16.0011 7.93975C15.9703 7.91839 15.9445 7.89668 15.9142 7.87833C15.7896 7.80441 15.6545 7.74983 15.5134 7.71645L16.1145 7.11577C16.1723 7.05543 16.2253 6.99068 16.273 6.9221C16.2915 6.89634 16.3073 6.87041 16.3253 6.84387C16.3504 6.80399 16.3724 6.76289 16.3943 6.72119C16.4334 6.64493 16.466 6.5655 16.4917 6.48376C16.4952 6.47351 16.4996 6.46373 16.5028 6.45348L17.2678 6.01162C17.3569 5.96022 17.4556 5.92751 17.5578 5.91547C17.66 5.90344 17.7636 5.91233 17.8622 5.94161C17.9609 5.97089 18.0525 6.01995 18.1316 6.08579C18.2107 6.15164 18.2756 6.23289 18.3222 6.3246C18.491 6.70788 18.3378 7.15664 17.9698 7.35669L17.9687 7.35673Z" fill="#171717"/>
</svg>
