<svg width="21" height="20" viewBox="0 0 21 20" fill="none" xmlns="http://www.w3.org/2000/svg">
<g clip-path="url(#clip0_7336_3238)">
<path fill-rule="evenodd" clip-rule="evenodd" d="M10.5 12C9.91063 12 9.3454 11.7659 8.92865 11.3491C8.51191 10.9324 8.27778 10.3671 8.27778 9.77778C8.27778 9.18841 8.51191 8.62318 8.92865 8.20643C9.3454 7.78968 9.91063 7.55556 10.5 7.55556C11.0894 7.55556 11.6546 7.78968 12.0713 8.20643C12.4881 8.62318 12.7222 9.18841 12.7222 9.77778C12.7222 10.3671 12.4881 10.9324 12.0713 11.3491C11.6546 11.7659 11.0894 12 10.5 12ZM18.2778 12C17.6884 12 17.1232 11.7659 16.7064 11.3491C16.2897 10.9324 16.0556 10.3671 16.0556 9.77778C16.0556 9.18841 16.2897 8.62318 16.7064 8.20643C17.1232 7.78968 17.6884 7.55556 18.2778 7.55556C18.8671 7.55556 19.4324 7.78968 19.8491 8.20643C20.2659 8.62318 20.5 9.18841 20.5 9.77778C20.5 10.3671 20.2659 10.9324 19.8491 11.3491C19.4324 11.7659 18.8671 12 18.2778 12ZM2.72222 12C2.13285 12 1.56762 11.7659 1.15087 11.3491C0.734126 10.9324 0.5 10.3671 0.5 9.77778C0.5 9.18841 0.734126 8.62318 1.15087 8.20643C1.56762 7.78968 2.13285 7.55556 2.72222 7.55556C3.31159 7.55556 3.87682 7.78968 4.29357 8.20643C4.71032 8.62318 4.94444 9.18841 4.94444 9.77778C4.94444 10.3671 4.71032 10.9324 4.29357 11.3491C3.87682 11.7659 3.31159 12 2.72222 12Z" fill="#3A3B3E"/>
</g>
<defs>
<clipPath id="clip0_7336_3238">
<rect width="20" height="20" fill="white" transform="matrix(0 -1 1 0 0.5 20)"/>
</clipPath>
</defs>
</svg>
