<svg width="41" height="32" viewBox="0 0 41 32" fill="none" xmlns="http://www.w3.org/2000/svg">
<g clip-path="url(#clip0_7336_3435)">
<path d="M10.0085 14.5409C8.58381 14.5457 7.18435 14.9172 5.94478 15.6194C7.68996 11.1022 10.5845 7.11895 14.3418 4.06389C14.5568 3.88685 14.7348 3.6692 14.8657 3.42337C14.9965 3.17753 15.0777 2.90833 15.1045 2.63113C15.1313 2.35393 15.1033 2.07416 15.022 1.8078C14.9407 1.54143 14.8077 1.29369 14.6307 1.07871C14.4537 0.863732 14.236 0.685728 13.9902 0.554864C13.7443 0.424001 13.4751 0.342839 13.1979 0.316014C12.9207 0.289188 12.641 0.317224 12.3746 0.39852C12.1082 0.479816 11.8605 0.61278 11.6455 0.789821C3.94182 7.04908 0.513672 15.7157 0.513672 21.0891C0.526945 22.989 1.09313 24.8439 2.14308 26.4274C3.19304 28.0109 4.68134 29.2544 6.42626 30.0061C7.55555 30.5532 8.79223 30.8426 10.047 30.8535C11.1514 30.9072 12.2553 30.736 13.2916 30.3503C14.3279 29.9647 15.2751 29.3726 16.0757 28.6099C16.8764 27.8472 17.5138 26.9299 17.9493 25.9135C18.3848 24.8972 18.6094 23.803 18.6094 22.6972C18.6094 21.5915 18.3848 20.4972 17.9493 19.4809C17.5138 18.4645 16.8764 17.5472 16.0757 16.7845C15.2751 16.0219 14.3279 15.4297 13.2916 15.0441C12.2553 14.6584 11.1514 14.4872 10.047 14.5409H10.0085Z" fill="#171717"/>
<path d="M31.4636 14.5407C30.0387 14.5438 28.6388 14.9153 27.3999 15.6192C29.1443 11.1067 32.0312 7.1248 35.7776 4.06367C36.0121 3.89465 36.2096 3.67942 36.3578 3.43125C36.506 3.18307 36.6018 2.90719 36.6394 2.62059C36.677 2.33398 36.6555 2.04271 36.5763 1.76471C36.4971 1.48671 36.3619 1.22786 36.1789 1.00408C35.996 0.780302 35.7691 0.596335 35.5124 0.463501C35.2557 0.330667 34.9745 0.251778 34.6861 0.231686C34.3978 0.211595 34.1083 0.250726 33.8357 0.346673C33.563 0.442621 33.3128 0.593354 33.1006 0.789595C25.3969 7.04886 21.9688 15.7155 21.9688 21.0889C21.9779 22.9673 22.5275 24.8033 23.5521 26.3777C24.5767 27.9521 26.0328 29.1983 27.7465 29.9674C28.9044 30.5304 30.176 30.8204 31.4636 30.8148C32.568 30.8685 33.6719 30.6973 34.7082 30.3116C35.7445 29.926 36.6917 29.3338 37.4923 28.5712C38.2929 27.8085 38.9303 26.8912 39.3659 25.8748C39.8014 24.8585 40.026 23.7642 40.026 22.6585C40.026 21.5527 39.8014 20.4585 39.3659 19.4422C38.9303 18.4258 38.2929 17.5085 37.4923 16.7458C36.6917 15.9831 35.7445 15.391 34.7082 15.0054C33.6719 14.6197 32.568 14.4485 31.4636 14.5022V14.5407Z" fill="#171717"/>
</g>
<defs>
<clipPath id="clip0_7336_3435">
<rect width="40" height="32" fill="white" transform="translate(0.5)"/>
</clipPath>
</defs>
</svg>
