<svg width="139" height="166" viewBox="0 0 139 166" fill="none" xmlns="http://www.w3.org/2000/svg">
<path d="M114.083 38.7724C129.945 38.6052 128.839 54.2217 125.256 61.3521C120.698 70.4229 115.245 77.6405 106.659 82.8866C93.6428 90.84 73.6729 94.5855 59.0279 90.707C40.7385 85.8634 38.5954 57.3535 57.1044 66.7716C66.0005 71.2983 67.214 79.2414 64.5747 86.506C60.0993 98.8241 52.9449 107.954 41.5158 113.803C30.0218 119.684 19.0903 117.96 6.98505 119.611" stroke="#37B853" stroke-width="3" stroke-linecap="round"/>
<path d="M9.5711 111.69C8.82055 113.88 7.65136 117.031 5.70048 118.3C4.33189 119.19 9.26097 121.403 9.67051 121.646C11.7278 122.867 13.7852 124.088 15.8425 125.309" stroke="#37B853" stroke-width="3" stroke-linecap="round"/>
</svg>
