<svg width="24" height="24" viewBox="0 0 24 24" fill="none" xmlns="http://www.w3.org/2000/svg">
<g clip-path="url(#clip0_7497_3192)">
<path d="M12 24C18.6274 24 24 18.6274 24 12C24 5.37258 18.6274 0 12 0C5.37258 0 0 5.37258 0 12C0 18.6274 5.37258 24 12 24Z" fill="#37B853"/>
<path d="M8.25143 17.8528L3.86264 13.1555C3.26179 12.5124 3.29628 11.4949 3.93936 10.8941C4.58245 10.2932 5.5999 10.3278 6.20075 10.9708L9.58607 14.594L14.9446 9.5874C14.9928 9.54233 15.0431 9.50104 15.0952 9.46305L17.6151 7.10869C18.2582 6.50784 19.2757 6.54242 19.8765 7.18551C20.4773 7.8285 20.4428 8.84604 19.7998 9.44689L12.1033 16.6379L12.0951 16.6291L9.43281 19.1166L8.25143 17.8522V17.8528Z" fill="white"/>
</g>
<defs>
<clipPath id="clip0_7497_3192">
<rect width="24" height="24" fill="white"/>
</clipPath>
</defs>
</svg>
