<svg width="64" height="48" viewBox="0 0 64 48" fill="none" xmlns="http://www.w3.org/2000/svg">
<g clip-path="url(#clip0_7208_1222)">
<path d="M7.2252 44.8437C7.09335 44.8437 6.97469 44.8173 6.85602 44.7778C6.59232 44.6723 6.38136 44.4745 6.2627 44.224L0.0921166 30.5512C-0.0265485 30.3007 -0.0265485 30.0106 0.0657466 29.7469C0.158042 29.4832 0.369002 29.2722 0.619517 29.1536L4.31132 27.4923C4.83872 27.2549 5.4716 27.4923 5.70893 28.0197L5.86715 28.3625L11.2862 26.8066C11.7872 26.6616 12.3278 26.9121 12.5388 27.3868L16.8766 36.9855C17.0876 37.4601 16.9294 38.0271 16.4811 38.304L11.7345 41.3365L11.8927 41.6793C12.0114 41.9298 12.0114 42.2199 11.9191 42.4836C11.8136 42.7473 11.6158 42.9583 11.3653 43.0769L7.67349 44.7382C7.51527 44.8173 7.37024 44.8437 7.2252 44.8437ZM2.45223 30.6435L7.7526 42.3913L9.51939 41.587L9.4271 41.3761C9.21614 40.9014 9.37436 40.3344 9.82265 40.0576L14.5692 37.025L10.9829 29.0876L5.56389 30.6435C5.06286 30.7885 4.52228 30.538 4.31132 30.0633L4.21902 29.8524L2.45223 30.6435Z" fill="#C8F27C"/>
<path d="M15.2945 38.607L10.2842 27.4921L38.4737 5.53906L50.4061 31.9882L15.2945 38.607ZM12.8816 28.1382L16.5339 36.2337L47.3868 30.4192L37.6431 8.8485L12.8816 28.1382Z" fill="#C8F27C"/>
<path d="M50.7754 33.0417C50.3667 33.0417 49.9579 32.9626 49.5624 32.8176C48.7054 32.488 48.0329 31.8551 47.6506 31.0244L37.3663 8.24076C36.5883 6.52671 37.3531 4.49622 39.0803 3.7183C40.7944 2.94039 42.8248 3.70512 43.6028 5.43236L53.8871 28.216C54.665 29.9301 53.9003 31.9606 52.173 32.7385C51.7247 32.9363 51.2501 33.0417 50.7754 33.0417ZM40.4911 5.53784C40.3065 5.53784 40.1351 5.57739 39.9505 5.6565C39.2913 5.95976 39.0012 6.72449 39.2913 7.38374L49.5756 30.1674C49.7206 30.4839 49.9843 30.7344 50.3007 30.853C50.6304 30.9717 50.9864 30.9717 51.3028 30.8267C51.9621 30.5366 52.2521 29.7587 51.9621 29.0994L41.6778 6.30257C41.4668 5.81472 40.9921 5.53784 40.4911 5.53784Z" fill="#C8F27C"/>
<path d="M6.24175 29.189L4.31885 30.0566L6.62362 35.1643L8.54652 34.2967L6.24175 29.189Z" fill="#C8F27C"/>
<path d="M20.1597 47.9017C19.7642 47.9017 19.3686 47.6643 19.1972 47.282L14.9385 37.8547L16.8635 36.9845L20.6871 45.4493L23.812 44.0385L20.5421 36.7999L22.4671 35.9297L26.1721 44.1308C26.4094 44.6582 26.1721 45.291 25.6447 45.5284L20.5948 47.8094C20.4498 47.8753 20.3048 47.9017 20.1597 47.9017Z" fill="#C8F27C"/>
<path d="M34.4588 13.3163L25.251 20.4844L26.5469 22.1491L35.7547 14.981L34.4588 13.3163Z" fill="#C8F27C"/>
<path d="M60.2049 10.9058L55.2534 13.1406L56.1213 15.0635L61.0728 12.8287L60.2049 10.9058Z" fill="#C8F27C"/>
<path d="M51.7227 0.495414L49.8008 5.57617L51.7739 6.32255L53.6958 1.24179L51.7227 0.495414Z" fill="#C8F27C"/>
<path d="M58.9254 22.181L58.1792 24.1543L63.2605 26.0757L64.0067 24.1024L58.9254 22.181Z" fill="#C8F27C"/>
</g>
<defs>
<clipPath id="clip0_7208_1222">
<rect width="64" height="47.4001" fill="white" transform="translate(0 0.5)"/>
</clipPath>
</defs>
</svg>
